<svg version="1.1" viewBox="0 0 136.04 171.27" xmlns="http://www.w3.org/2000/svg"><defs><linearGradient id="a" x1="31" x2="167.2" y1="194.84" y2="194.84" gradientUnits="userSpaceOnUse"><stop stop-color="#22465a" offset="0"/><stop stop-color="#2f627d" offset=".5"/><stop stop-color="#4bafe7" offset="1"/></linearGradient></defs><g transform="translate(-31 -51.513)"><g fill="url(#a)"><path d="m167 167.31s8e-3 10.714 0 17c-3e-3 1.9598-4 4.2172-4 4.2172s-56.478 32.211-60.239 33.391-3.7608 1.1293-7.4881 0.0185-60.273-33.41-60.273-33.41-4-2.2797-4-4.2172l-2e-6 -17s6e-6 -1.0001 2 0.10856c28 15.521 60.588 34.204 63.294 35.084s2.7061 0.86696 5.4121 0 35.179-19.5 63.294-35.084c2-1.1086 2-0.10862 2-0.10862z"/><path d="m101.71 189.5c2.7061-1.0531 61.294-33.976 63.294-35.084s2-0.10862 2-0.10862 0.019 1.7529 0 6.8989c-8e-3 2.1507-2 3.2097-2 3.2097s-58.745 33.6-62.392 34.584c-3.6467 0.98425-3.6081 0.99687-7.2162 0s-62.392-34.584-62.392-34.584-2-1.2219-2-3.1086c6e-6 -5.2207 0-7 0-7s0.47053-0.86967 2 0.10861c1.9264 1.2321 60.616 34.051 63.294 35.084s2.7061 1.0531 5.4121 0z"/><path d="m101.71 176.5c2.7061-1.0531 61.294-33.976 63.294-35.084s2.0084 0.14853 2.0084 0.14853 0.0106 1.5969-8e-3 6.7429c-8e-3 2.1507-2 3.1086-2 3.1086s-58.745 33.6-62.392 34.584c-3.6467 0.98425-3.6081 0.99687-7.2162 0-3.6085-0.99687-62.392-34.584-62.392-34.584s-2-1.2219-2-3.1086c6e-6 -5.2207 0-7 0-7s0.47053-0.86967 2 0.10861c1.9264 1.2321 60.616 34.051 63.294 35.084s2.7061 1.0531 5.4121 0z"/><path d="m102.61 129.5c2.0889-1.1688 25.622-14.202 27.622-15.311s3.7704-2.09 3.7704-2.09 0.0186 23.331 0 28.477c-8e-3 2.1507-1.5031 2.8561-1.5031 2.8561s-26.242 15.583-29.889 16.568c-3.6467 0.98425-3.6081 0.99687-7.2162 0-3.6085-0.99687-32.868-18.219-32.868-18.219s-1.5234-0.53751-1.5234-2.4242c6e-6 -5.2207 0-28.92 0-28.92 11.569 5.7449 23.251 12.915 34.392 19.064 2.3775 1.3179 5.1273 1.1688 7.2162 0z"/><path d="m137 110.44c3.0421-1.6863 18.649-10.379 28-15.521 1.6566-0.91094 1.9859-2.0128 1.9859-2.0128l0.0252 40.686s0.12118 3.6628-2.0114 4.8268c-21.756 11.875-58.788 33.212-62.392 34.584-3.6039 1.3719-3.6039 1.3696-7.2162 0-3.612-1.3696-41.594-23.056-62.392-34.584-2-1.1086-2-2.9424-2-2.9424l2e-6 -43.812s0.79551 2.7518 2 3.2543c11.006 4.5917 24.958 13.834 24.958 13.834s0.08173 29.234 0.04209 30.523 1.3282 3.7362 3 4.6629 32.582 18.517 35.294 19.564 2.7118 1.0545 5.4121 0c2.7004-1.0545 30.903-17.13 32.294-17.901s3-3.1555 3.0938-4.6484-0.09376-30.514-0.09376-30.514z"/></g><path d="m116.24 93.442c0.72415-0.4014 23.477-13.014 26.985-14.958 2.1418-1.1872 3.2008-1.1295 5.3041-0.02773 2.8627 1.4996 8.1526 4.519 14.468 8.0196 2 1.1086 3.9615 2.8344 4.0127 4.6404 0.0835 2.9453 0.0929 2.6086-2.0127 3.7994-4.1341 2.2915-28 15.521-28 15.521s0-3.3725-2.9917-5.1037c-1.5781-0.91322-14.154-7.8291-16.968-9.3325-2.9096-1.5546-2.7061-1.5-0.79685-2.5583z" fill="#79b677" fill-opacity=".96078"/><path d="m102.61 129.5c2.4691-1.3686 15.249-8.3944 27.622-15.311 1.7914-1.0015 3.7704-2.09 3.7704-2.09 0-1.0927 0.29925-3.1064-2.3873-4.5959-1.7637-0.97779-18.404-10.202-19.162-10.622s-1.4617-0.52692-2.1386-0.15194-5.9761 3.4996-7.7039 4.2701c-3.6191 1.6138-3.6191 1.5731-7.2162 0-2.0325-0.88887-5.6958-3.1745-7.3585-4.0786-1.6628-0.90408-2.58-0.25533-3.2014 0.08885-0.62145 0.34418-23.832 13.426-23.832 13.426s31.475 17.447 34.392 19.063 4.7471 1.3689 7.2162 3e-4z" fill="#79b677"/><path d="m58 108.77 25.666-14.273c-30.542-16.93-27.135-15.041-28.838-15.985s-4.1488-0.73001-5.6825 0.12013-9.4301 5.2272-14.145 7.8408c-5.6422 3.1275-4.296 7.1505-2 8.4398 10.787 5.9451 25 13.858 25 13.858z" fill="#2f6275"/><path d="m76.452 85.502c-0.42407-0.23653-0.55261-0.69708 0.01486-1.0116 0.42925-0.23794 21.563-11.952 21.867-12.121 0.30323-0.16889 1.0541-0.16385 1.3908 0.03251s21.37 11.843 21.868 12.121c0.45375 0.25406 0.45738 0.69625 2e-3 0.95259-0.46584 0.26234-21.691 12.023-21.987 12.188-0.29654 0.16437-0.91535 0.16576-1.23-0.0087-0.31448-0.17442-21.5-11.917-21.924-12.153z" fill="#82e77e"/><path d="m58.393 75.303c-0.88774-0.30417-1.0648-1.1945 0-1.8183s33.344-18.52 36.999-20.485 3.6081-2 7.2162 3e-6 35.481 19.668 36.605 20.291 1.1349 1.9197 0.0151 2.4104c-1.1199 0.49069-13.168 7.299-13.168 7.299s0.24536-0.864-1.3895-1.7702c-7.3544-4.0766-18.448-10.226-22.063-12.23-3.6151-2.0039-3.6151-1.9961-7.2162-2e-6s-14.502 7.7572-21.769 12.067c-1.9221 1.1399-1.6838 1.9333-1.6838 1.9333s-12.658-7.3924-13.546-7.6966z" fill="#489db3"/></g></svg>
